<svg xmlns="http://www.w3.org/2000/svg" xmlns:xlink="http://www.w3.org/1999/xlink" width="80" height="80" viewBox="0 0 80 80"><defs><path id="cmcva" d="M860 285a40 40 0 1 1 80 0 40 40 0 1 1-80 0z"/><path id="cmcvb" d="M918.35 277.73l-3.16-3.1a2.17 2.17 0 0 0-1.58-.63c-.62 0-1.14.21-1.58.64l-15.23 14.93-6.83-6.7a2.17 2.17 0 0 0-1.58-.64c-.62 0-1.15.2-1.58.63l-3.16 3.1c-.43.42-.65.93-.65 1.54 0 .6.22 1.12.65 1.55l8.4 8.22 3.17 3.1c.43.42.96.63 1.58.63.62 0 1.14-.21 1.58-.64l3.15-3.09 16.82-16.45c.43-.43.65-.94.65-1.55 0-.6-.22-1.12-.65-1.54z"/></defs><g><g transform="translate(-860 -245)"><use fill="#cfeed3" xlink:href="#cmcva"/></g><g transform="translate(-860 -245)"><use fill="#40ad4e" xlink:href="#cmcvb"/></g></g></svg>