<svg xmlns="http://www.w3.org/2000/svg" xmlns:xlink="http://www.w3.org/1999/xlink" width="16" height="15" viewBox="0 0 16 15"><defs><path id="vnzla" d="M696.58 431.52H685.4a2.4 2.4 0 0 1-2.07-3.6l5.6-9.7a2.38 2.38 0 0 1 4.15 0l5.6 9.7a2.4 2.4 0 0 1-2.09 3.6zm-4.71-3.02a.88.88 0 0 0-.87-.91.9.9 0 0 0-.9.89c0 .48.4.89.9.89.46 0 .9-.4.87-.87zm.02-6.24c0-.17-.02-.3-.08-.45a.9.9 0 0 0-1.04-.5c-.43.12-.69.5-.69.97l.06.85.19 3.21c.02.37.3.63.67.63.36 0 .65-.28.67-.65 0-.22 0-.42.02-.65l.12-2.07.08-1.34z"/></defs><g><g transform="translate(-683 -417)"><use fill="#f22c2c" xlink:href="#vnzla"/></g></g></svg>